<svg width="37" height="37" viewBox="0 0 37 37" fill="none" xmlns="http://www.w3.org/2000/svg">
  <path fill-rule="evenodd" clip-rule="evenodd" d="M36.4224 25.4109C36.4044 25.3489 36.3904 25.2859 36.3654 25.2249C36.3394 25.1649 36.3054 25.1099 36.2744 25.0539C36.2484 25.0059 36.2274 24.9569 36.1974 24.9119C36.1304 24.8109 36.0544 24.7189 35.9704 24.6339L29.2594 17.9229C28.5474 17.2099 27.3914 17.2099 26.6784 17.9229C25.9654 18.6359 25.9654 19.7909 26.6784 20.5039L30.2734 24.0989H1.82939C0.821395 24.0989 0.00439453 24.9159 0.00439453 25.9239C0.00439453 26.9319 0.821395 27.7489 1.82939 27.7489H34.6794C34.7994 27.7489 34.9194 27.7359 35.0374 27.7129C35.0904 27.7019 35.1404 27.6819 35.1924 27.6669C35.2544 27.6479 35.3174 27.6349 35.3784 27.6089C35.4384 27.5839 35.4934 27.5499 35.5504 27.5179C35.5974 27.4929 35.6464 27.4719 35.6924 27.4409C35.8924 27.3079 36.0644 27.1369 36.1974 26.9359C36.2284 26.8899 36.2484 26.8419 36.2744 26.7939C36.3054 26.7369 36.3394 26.6819 36.3654 26.6219C36.3904 26.5609 36.4044 26.4989 36.4224 26.4359C36.4384 26.3849 36.4584 26.3349 36.4684 26.2809C36.5154 26.0459 36.5154 25.8029 36.4684 25.5659C36.4584 25.5129 36.4384 25.4629 36.4224 25.4109Z" fill="#F15C3E"/>
  <path fill-rule="evenodd" clip-rule="evenodd" d="M0.0861328 11.2313C0.104133 11.2933 0.119133 11.3563 0.144133 11.4173C0.169133 11.4773 0.203133 11.5323 0.234133 11.5883C0.260133 11.6363 0.281133 11.6853 0.311133 11.7313C0.378133 11.8313 0.454133 11.9243 0.539133 12.0093L7.24913 18.7193C7.96213 19.4323 9.11713 19.4323 9.83013 18.7193C10.5431 18.0063 10.5431 16.8513 9.83013 16.1383L6.23513 12.5433H34.6801C35.6881 12.5433 36.5051 11.7263 36.5051 10.7183C36.5051 9.71031 35.6881 8.89331 34.6801 8.89331H1.82913C1.70913 8.89331 1.59013 8.90631 1.47213 8.92931C1.41813 8.94031 1.36813 8.96031 1.31613 8.97531C1.25413 8.99431 1.19113 9.00831 1.13113 9.03331C1.07013 9.05831 1.01513 9.09231 0.958133 9.12431C0.911133 9.15031 0.862133 9.17031 0.817133 9.20131C0.617133 9.33531 0.445133 9.50631 0.311133 9.70731C0.281133 9.75231 0.260133 9.80031 0.234133 9.84831C0.203133 9.90531 0.169133 9.96031 0.144133 10.0203C0.119133 10.0813 0.105133 10.1433 0.0861328 10.2063C0.0711328 10.2573 0.0511328 10.3073 0.0401328 10.3613C-0.00686719 10.5973 -0.00686719 10.8403 0.0401328 11.0763C0.0511328 11.1293 0.0711328 11.1793 0.0861328 11.2313Z" fill="#F15C3E"/>
  <path fill-rule="evenodd" clip-rule="evenodd" d="M32.32 29.743C31.608 29.031 30.452 29.031 29.739 29.743L26.553 32.93C25.841 33.641 25.841 34.798 26.553 35.511C27.266 36.222 28.422 36.222 29.134 35.511L32.32 32.324C33.033 31.612 33.033 30.456 32.32 29.743Z" fill="#00B5BC"/>
  <path fill-rule="evenodd" clip-rule="evenodd" d="M7.37479 1.13265L4.18879 4.31865C3.47679 5.03065 3.47679 6.18665 4.18879 6.89965C4.90179 7.61165 6.05679 7.61165 6.76979 6.89965L9.95579 3.71365C10.6678 3.00065 10.6678 1.84565 9.95579 1.13265C9.24279 0.41965 8.08679 0.41965 7.37479 1.13265Z" fill="#00B5BC"/>
</svg>
