<svg width="37" height="36" viewBox="0 0 37 36" fill="none" xmlns="http://www.w3.org/2000/svg">
  <path fill-rule="evenodd" clip-rule="evenodd" d="M15.9725 3.74692C11.7565 3.74692 8.32649 7.17692 8.32649 11.3929C8.32649 11.7369 8.35849 12.1059 8.42549 12.5519L8.64949 14.0199L7.25549 14.5369C5.16149 15.3129 3.75449 17.3309 3.75449 19.5579C3.75449 22.5129 6.15949 24.9169 9.11449 24.9169H25.4435C29.4795 24.9169 32.7635 21.6339 32.7635 17.5979C32.7635 13.5619 29.4795 10.2779 25.4435 10.2779C25.3815 10.2779 25.3205 10.2839 25.2585 10.2879L23.6755 10.3709L23.2445 9.03892C22.2205 5.87292 19.2985 3.74692 15.9725 3.74692M25.4435 28.5669H9.11449C4.14649 28.5669 0.104492 24.5249 0.104492 19.5579C0.104492 16.2959 1.89649 13.3029 4.68249 11.7219C4.67849 11.6109 4.67649 11.5019 4.67649 11.3929C4.67649 5.16392 9.74349 0.0969238 15.9725 0.0969238C20.4315 0.0969238 24.3995 2.68392 26.2265 6.65592C31.9105 7.05892 36.4125 11.8119 36.4125 17.5979C36.4125 23.6459 31.4925 28.5669 25.4435 28.5669" fill="#00AEB8"/>
  <path fill-rule="evenodd" clip-rule="evenodd" d="M27.7488 30.3845V30.3925H27.3838C27.5078 30.3925 27.6318 30.3925 27.7488 30.3845" fill="#00B5BC"/>
  <path fill-rule="evenodd" clip-rule="evenodd" d="M25.194 35.5028H11.323C10.315 35.5028 9.49902 34.6858 9.49902 33.6778C9.49902 32.6698 10.315 31.8528 11.323 31.8528H25.194C26.202 31.8528 27.018 32.6698 27.018 33.6778C27.018 34.6858 26.202 35.5028 25.194 35.5028" fill="#F8991D"/>
</svg>
