<svg width="36" height="32" viewBox="0 0 36 32" fill="none" xmlns="http://www.w3.org/2000/svg">
  <path fill-rule="evenodd" clip-rule="evenodd" d="M32.4555 10.7542C32.3536 12.4204 31.5794 13.9708 30.4286 15.151L29.6534 15.9457L18.0003 27.9077L6.34623 15.9467L5.57102 15.151C4.4212 13.9708 3.64599 12.4204 3.5451 10.7542C3.42822 8.83773 4.10253 7.01564 5.41119 5.67137C6.71985 4.3271 8.49603 3.63702 10.3621 3.75596C11.9865 3.85952 13.4959 4.65522 14.6467 5.83543L15.4219 6.63112L16.7706 8.01641L18.6956 9.99231C19.4398 10.7562 20.6476 10.7562 21.3918 9.99231C22.1361 9.22738 22.1361 7.98872 21.3918 7.22481L20.6965 6.51013L21.5127 5.67137C22.7255 4.42758 24.3368 3.74263 26.0511 3.74263C27.7653 3.74263 29.3767 4.42758 30.5884 5.67137C31.8981 7.01564 32.5714 8.83773 32.4555 10.7542ZM33.1638 3.02179C31.1988 1.00692 28.6254 0 26.0511 0C23.4757 0 20.9003 1.00795 18.9344 3.02487L18.0003 3.98462L17.0653 3.02487C15.1003 1.00795 12.5239 0 9.94854 0C7.37518 0 4.80081 1.00692 2.83582 3.02179C-1.08217 7.04025 -0.872385 13.8303 3.04461 17.8508L3.76787 18.5932L16.0014 31.151C17.1052 32.283 18.8944 32.283 19.9983 31.151L32.2317 18.5932L32.955 17.8508C36.872 13.8303 37.0828 7.04025 33.1638 3.02179Z" fill="#00AEB8"/>
  <path fill-rule="evenodd" clip-rule="evenodd" d="M11.8503 17.4594L8.54058 14.1497C7.81981 13.4289 7.81981 12.2603 8.54058 11.5406C9.26034 10.8198 10.4289 10.8198 11.1497 11.5406L14.4594 14.8503C15.1802 15.5711 15.1802 16.7386 14.4594 17.4594C13.7397 18.1802 12.5711 18.1802 11.8503 17.4594Z" fill="#F8991D"/>
</svg>
