<svg width="37" height="38" viewBox="0 0 37 38" fill="none" xmlns="http://www.w3.org/2000/svg">
  <mask id="mask0" mask-type="alpha" maskUnits="userSpaceOnUse" x="0" y="1" width="37" height="37">
    <path fill-rule="evenodd" clip-rule="evenodd" d="M0.00292969 1H36.4088V37.4104H0.00292969V1Z" fill="white"/>
  </mask>
  <g mask="url(#mask0)">
    <path fill-rule="evenodd" clip-rule="evenodd" d="M35.8748 34.2947L28.1688 26.5867C27.3788 25.7967 26.1148 25.8157 25.3128 26.5947C22.7268 29.1067 19.0828 30.5297 15.1118 30.1367C9.18377 29.5447 4.37276 24.7777 3.73076 18.8507C2.83276 10.6017 9.83277 3.69468 18.1038 4.76168C23.3898 5.44068 27.7698 9.44768 28.9018 14.6527C29.3508 16.7477 29.2738 18.8037 28.7728 20.6877C28.5748 21.4357 28.8378 22.2267 29.4668 22.6757C30.5168 23.4247 31.9778 22.8787 32.3078 21.6317C32.7768 19.8577 32.9558 17.9657 32.7918 16.0037C32.1428 8.25768 25.9668 1.92168 18.2358 1.09668C7.78176 -0.020322 -0.956235 8.67368 0.0877647 19.1127C0.861765 26.9167 7.25676 33.1737 15.0748 33.8017C19.4738 34.1487 23.5418 32.7617 26.6738 30.2567L33.2938 36.8757C34.0058 37.5887 35.1618 37.5887 35.8748 36.8757C36.5868 36.1627 36.5868 35.0077 35.8748 34.2947Z" fill="#F15C3E"/>
  </g>
  <path fill-rule="evenodd" clip-rule="evenodd" d="M21.9148 22.9168C21.3208 22.3218 20.4068 22.2598 19.6918 22.7028C18.7418 23.2918 17.6218 23.6318 16.4258 23.6318C15.3178 23.6318 14.2728 23.3378 13.3688 22.8238C12.6878 22.4368 11.8388 22.5248 11.2728 23.0658L11.1628 23.1718C10.3258 23.9718 10.4698 25.3658 11.4708 25.9478C12.9258 26.7948 14.6168 27.2818 16.4258 27.2818C18.3718 27.2818 20.1838 26.7198 21.7118 25.7478C22.6628 25.1438 22.8118 23.8128 22.0158 23.0168L21.9148 22.9168Z" fill="#00B5BC"/>
</svg>
