<svg width="37" height="34" viewBox="0 0 37 34" fill="none" xmlns="http://www.w3.org/2000/svg">
  <path fill-rule="evenodd" clip-rule="evenodd" d="M24.1003 20.0174C16.1453 15.4944 7.43328 14.9134 3.66028 14.9004V10.8464C7.43328 10.8324 16.1453 10.2524 24.1003 5.72937V20.0174ZM12.0263 29.6634H8.41228L7.28128 18.7294C8.43628 18.8334 9.66428 18.9924 10.9463 19.2204L12.0263 29.6634ZM25.8913 0.599365C25.5203 0.599365 25.1393 0.711365 24.7953 0.957365C17.6353 6.09437 8.77128 7.19737 3.52328 7.19737C2.95428 7.19737 2.42728 7.18337 1.95128 7.16237C1.92128 7.16037 1.89228 7.16037 1.86328 7.16037C0.843277 7.16037 0.00927734 7.98637 0.00927734 9.01637V16.7294C0.00927734 17.7604 0.843277 18.5864 1.86328 18.5864C1.89228 18.5864 1.92128 18.5854 1.95128 18.5844C2.42728 18.5624 2.95428 18.5494 3.52328 18.5494C3.54628 18.5494 3.57328 18.5504 3.59728 18.5504L4.82828 30.5254C4.99628 32.1094 6.33128 33.3134 7.92228 33.3134H12.6243C14.4633 33.3134 15.9023 31.7224 15.7123 29.8894L14.7043 20.0754C18.0933 21.0214 21.6123 22.5044 24.7953 24.7884C25.1393 25.0354 25.5203 25.1464 25.8913 25.1464C26.8543 25.1464 27.7493 24.3934 27.7493 23.2944V2.45237C27.7493 1.35337 26.8543 0.599365 25.8913 0.599365Z" fill="#00AEB8"/>
  <mask id="mask0" mask-type="alpha" maskUnits="userSpaceOnUse" x="29" y="6" width="8" height="14">
    <path fill-rule="evenodd" clip-rule="evenodd" d="M29.9399 6.6543H36.5099V19.092H29.9399V6.6543Z" fill="white"/>
  </mask>
  <g mask="url(#mask0)">
    <path fill-rule="evenodd" clip-rule="evenodd" d="M29.9399 8.49592C29.9399 9.22992 30.3789 9.89292 31.0569 10.1749C32.1159 10.6129 32.8599 11.6559 32.8599 12.8729C32.8599 14.0909 32.1159 15.1339 31.0569 15.5719C30.3789 15.8529 29.9399 16.5169 29.9399 17.2509C29.9399 18.5269 31.2299 19.4429 32.4129 18.9619C34.8159 17.9849 36.5099 15.6269 36.5099 12.8729C36.5099 10.1199 34.8159 7.76192 32.4129 6.78392C31.2299 6.30392 29.9399 7.21992 29.9399 8.49592Z" fill="#F15C3E"/>
  </g>
</svg>
