<svg width="23" height="37" viewBox="0 0 23 37" fill="none" xmlns="http://www.w3.org/2000/svg">
  <path fill-rule="evenodd" clip-rule="evenodd" d="M18.0052 0.00476074H5.23025C2.50825 0.00476074 0.302246 2.21076 0.302246 4.93176V31.5768C0.302246 34.2988 2.50825 36.5048 5.23025 36.5048H18.0052C20.7272 36.5048 22.9332 34.2988 22.9332 31.5768V4.93176C22.9332 2.21076 20.7272 0.00476074 18.0052 0.00476074ZM18.0052 3.65376C18.7102 3.65376 19.2832 4.22776 19.2832 4.93176V31.5768C19.2832 32.2818 18.7102 32.8558 18.0052 32.8558H5.23025C4.52625 32.8558 3.95225 32.2818 3.95225 31.5768V4.93176C3.95225 4.22776 4.52625 3.65376 5.23025 3.65376H18.0052Z" fill="#F8991D"/>
  <path fill-rule="evenodd" clip-rule="evenodd" d="M14.173 28.1102C14.173 29.5212 13.029 30.6652 11.618 30.6652C10.207 30.6652 9.06299 29.5212 9.06299 28.1102C9.06299 26.6992 10.207 25.5542 11.618 25.5542C13.029 25.5542 14.173 26.6992 14.173 28.1102Z" fill="#00B5BC"/>
</svg>
