<svg width="27" height="36" viewBox="0 0 27 36" fill="none" xmlns="http://www.w3.org/2000/svg">
  <path fill-rule="evenodd" clip-rule="evenodd" d="M19.5395 9.88744L16.0975 7.17944L18.3535 4.31044L21.7965 7.01944L19.5395 9.88744ZM9.20946 23.0154L4.61046 25.3184L5.76746 20.3064L13.8405 10.0474L17.2815 12.7564L9.20946 23.0154ZM25.3085 5.13844L19.3555 0.454441C18.4655 -0.246559 17.1745 -0.0925589 16.4735 0.798441L2.67846 18.3294C2.49046 18.5684 2.35846 18.8434 2.29046 19.1384L0.290461 27.8044C0.095461 28.6504 0.436461 29.4194 1.02146 29.8794C1.60546 30.3394 2.43446 30.4914 3.21046 30.1014L11.1625 26.1184C11.4335 25.9844 11.6705 25.7904 11.8565 25.5534L25.6515 8.02144C26.3535 7.13044 26.1995 5.83944 25.3085 5.13844Z" fill="#27255F"/>
  <path fill-rule="evenodd" clip-rule="evenodd" d="M23.8451 35.7782H1.94514C0.937141 35.7782 0.119141 34.9612 0.119141 33.9532C0.119141 32.9452 0.937141 32.1282 1.94514 32.1282H23.8451C24.8531 32.1282 25.6701 32.9452 25.6701 33.9532C25.6701 34.9612 24.8531 35.7782 23.8451 35.7782Z" fill="#F15C3E"/>
</svg>
