<svg width="31" height="36" viewBox="0 0 31 36" fill="none" xmlns="http://www.w3.org/2000/svg">
  <path fill-rule="evenodd" clip-rule="evenodd" d="M22.8986 0.00268555H8.72624C5.89392 0.00268555 3.52278 2.14906 3.24062 4.96679L0.792619 29.4556C0.467646 32.7004 3.01586 35.5172 6.27727 35.5172H25.3475C28.6089 35.5172 31.1572 32.7004 30.8322 29.4556L28.3832 4.96679C28.102 2.14906 25.7309 0.00268555 22.8986 0.00268555ZM22.8986 3.55404C23.9105 3.55404 24.7492 4.31393 24.8494 5.31998L27.2983 29.8097C27.3742 30.5628 27.0191 31.0794 26.8012 31.3207C26.5832 31.562 26.1045 31.9658 25.3475 31.9658H6.27727C5.5203 31.9658 5.04062 31.562 4.82267 31.3207C4.60473 31.0794 4.25057 30.5628 4.32646 29.8097L6.77543 5.31998C6.87565 4.31393 7.71435 3.55404 8.72624 3.55404H22.8986Z" fill="#22285E"/>
  <path fill-rule="evenodd" clip-rule="evenodd" d="M20.8316 6.39539C20.0863 6.39539 19.413 6.85852 19.1678 7.56198C18.6842 8.95041 17.3639 9.94674 15.812 9.94674C14.2611 9.94674 12.9408 8.95041 12.4572 7.56198C12.213 6.85852 11.5387 6.39539 10.7934 6.39539C9.5519 6.39539 8.70735 7.63203 9.12768 8.80058C10.1143 11.5385 12.7355 13.4981 15.812 13.4981C18.8885 13.4981 21.5107 11.5385 22.4973 8.80058C22.9186 7.63203 22.0731 6.39539 20.8316 6.39539Z" fill="#00B5BC"/>
</svg>
