<svg width="37" height="37" viewBox="0 0 37 37" fill="none" xmlns="http://www.w3.org/2000/svg">
  <path fill-rule="evenodd" clip-rule="evenodd" d="M18.2544 30.5663C10.9984 30.5663 5.11439 24.8371 5.11439 17.7711C5.11439 10.707 10.9984 4.97784 18.2544 4.97784C25.5104 4.97784 31.3944 10.707 31.3944 17.7711C31.3944 24.8371 25.5104 30.5663 18.2544 30.5663ZM36.3954 15.8383C36.2934 14.9075 35.4684 14.2171 34.5044 14.2171C34.1394 14.2171 33.8254 13.9757 33.7304 13.6281C33.3734 12.3623 32.8544 11.1607 32.2054 10.0449C32.0224 9.73332 32.0664 9.34871 32.3294 9.09263C32.6934 8.73042 32.8914 8.2465 32.8914 7.77037C32.8914 7.37311 32.7594 6.97487 32.4894 6.64771C32.1174 6.19982 31.7304 5.77334 31.3144 5.3605C31.2124 5.25437 31.1094 5.15408 31.0004 5.05574C30.5774 4.65068 30.1394 4.27387 29.6794 3.91068C28.9274 3.32745 27.8464 3.40534 27.1684 4.06745C27.0144 4.21642 26.8104 4.29529 26.6054 4.29529C26.4594 4.29529 26.3204 4.25926 26.1894 4.18818C25.0434 3.55529 23.8094 3.05092 22.5104 2.70234C22.1524 2.60984 21.9044 2.30508 21.9044 1.94871C21.9044 1.48037 21.7294 1.04708 21.4294 0.712132C21.1304 0.384974 20.7214 0.158106 20.2394 0.108448C19.5834 0.0373691 18.9254 0.00134277 18.2544 0.00134277C17.5824 0.00134277 16.9254 0.0373691 16.2684 0.108448C15.3124 0.207764 14.6044 1.01105 14.6044 1.94871C14.6044 2.30508 14.3564 2.60984 13.9984 2.70234C12.6984 3.05092 11.4654 3.55529 10.3184 4.18818C9.99839 4.36637 9.6034 4.32353 9.34039 4.06745C8.9684 3.70426 8.47939 3.52024 7.98339 3.52024C7.58139 3.52024 7.17239 3.64779 6.82939 3.91068C6.36939 4.27387 5.93139 4.65068 5.50839 5.05574L5.19439 5.3605C4.77839 5.77334 4.39139 6.19982 4.01939 6.64771C3.42039 7.37992 3.50739 8.43247 4.17939 9.09263C4.33339 9.24258 4.41339 9.44121 4.41339 9.63984C4.41339 9.782 4.37739 9.91734 4.30339 10.0449C3.65339 11.1607 3.13539 12.3623 2.77739 13.6281C2.68339 13.9757 2.36939 14.2171 2.00439 14.2171C1.52239 14.2171 1.07739 14.3885 0.733395 14.6796C0.398394 14.9708 0.164395 15.369 0.113395 15.8383C0.0403945 16.478 0.00439453 17.1168 0.00439453 17.7711C0.00439453 18.4254 0.0403945 19.0651 0.113395 19.7048C0.215395 20.6366 1.04039 21.326 2.00439 21.326C2.36939 21.326 2.68339 21.5675 2.77739 21.9151C3.13539 23.1809 3.65339 24.3814 4.30339 25.4982C4.48639 25.8108 4.44239 26.1944 4.17939 26.4505C3.80739 26.8137 3.61739 27.2898 3.61739 27.7728C3.61739 28.1632 3.74939 28.5614 4.01939 28.8954C4.39139 29.3433 4.77839 29.7708 5.19439 30.1817C5.29639 30.2888 5.39939 30.3881 5.50839 30.4884C5.93139 30.8934 6.36939 31.2702 6.82939 31.6324C7.58139 32.2147 8.6624 32.129 9.34039 31.4767C9.4944 31.3267 9.69839 31.2478 9.90239 31.2478C10.0484 31.2478 10.1874 31.2839 10.3184 31.3559C11.4654 31.9878 12.6984 32.4932 13.9984 32.8408C14.3564 32.9333 14.6044 33.239 14.6044 33.5934C14.6044 34.0637 14.7794 34.497 15.0784 34.831C15.3784 35.1582 15.7864 35.385 16.2684 35.4347C16.9254 35.5058 17.5824 35.5418 18.2544 35.5418C18.9254 35.5418 19.5834 35.5058 20.2394 35.4347C21.1964 35.3354 21.9044 34.5321 21.9044 33.5934C21.9044 33.239 22.1524 32.9333 22.5104 32.8408C23.8094 32.4932 25.0434 31.9878 26.1894 31.3559C26.5104 31.1777 26.9044 31.2196 27.1684 31.4767C27.5404 31.8311 28.0364 32.0229 28.5254 32.0229C28.9344 32.0229 29.3434 31.8953 29.6794 31.6324C30.1394 31.2702 30.5774 30.8934 31.0004 30.4884C31.1094 30.3881 31.2124 30.2888 31.3144 30.1817C31.7304 29.7708 32.1174 29.3433 32.4894 28.8954C33.0884 28.1632 33.0074 27.1116 32.3294 26.4505C32.1754 26.3015 32.0954 26.1019 32.0954 25.9033C32.0954 25.7602 32.1314 25.6258 32.2054 25.4982C32.8544 24.3814 33.3734 23.1809 33.7304 21.9151C33.8254 21.5675 34.1394 21.326 34.5044 21.326C34.9864 21.326 35.4314 21.1546 35.7744 20.8635C36.1104 20.5714 36.3444 20.1741 36.3954 19.7048C36.4684 19.0651 36.5044 18.4254 36.5044 17.7711C36.5044 17.1168 36.4684 16.478 36.3954 15.8383Z" fill="#F15C3E"/>
  <path fill-rule="evenodd" clip-rule="evenodd" d="M18.2546 8.53088C13.0136 8.53088 8.76465 12.6681 8.76465 17.7711C8.76465 22.8742 13.0136 27.0114 18.2546 27.0114C23.4956 27.0114 27.7446 22.8742 27.7446 17.7711C27.7446 12.6681 23.4956 8.53088 18.2546 8.53088ZM18.2546 12.0848C21.4746 12.0848 24.0946 14.6369 24.0946 17.7711C24.0946 20.9074 21.4746 23.4575 18.2546 23.4575C15.0346 23.4575 12.4146 20.9074 12.4146 17.7711C12.4146 14.6369 15.0346 12.0848 18.2546 12.0848Z" fill="#00B5BC"/>
</svg>
